HIERARCHY
ROOT root
{
	OFFSET	0	13.1	24.9
	CHANNELS 6  Xposition Yposition Zposition Xrotation Yrotation Zrotation
	JOINT spine_1
	{
		OFFSET	0	9.99999	0
		CHANNELS 3  Xrotation Yrotation Zrotation
		JOINT spine_2
		{
			OFFSET	0	112	-10
			CHANNELS 3  Xrotation Yrotation Zrotation
			JOINT spine_3
			{
				OFFSET	0	206.5	19.3
				CHANNELS 3  Xrotation Yrotation Zrotation
				JOINT spine_4
				{
					OFFSET	0	110.4	14.6
					CHANNELS 3  Xrotation Yrotation Zrotation
					JOINT neck_1
					{
						OFFSET	0	71.8	-50.3
						CHANNELS 3  Xrotation Yrotation Zrotation
						JOINT neck_2
						{
							OFFSET	0	86.2	-25.8
							CHANNELS 3  Xrotation Yrotation Zrotation
							JOINT head_ee
							{
								OFFSET	0	179.8	-8.7
								CHANNELS 3  Xrotation Yrotation Zrotation
								End Site
								{
									OFFSET	1	0	0
								}
							}
						}
					}
					JOINT left_clavicle
					{
						OFFSET	-43.2	22.4	-70.8
						CHANNELS 3  Xrotation Yrotation Zrotation
						JOINT left_shoulder
						{
							OFFSET	-93.9	-5.79999	48.7
							CHANNELS 3  Xrotation Yrotation Zrotation
							JOINT left_elbow
							{
								OFFSET	-291.4	-30.8	15.2
								CHANNELS 3  Xrotation Yrotation Zrotation
								JOINT left_lowarm_twist
								{
									OFFSET	-110.7	-3.89999	13.6
									CHANNELS 3  Xrotation Yrotation Zrotation
									JOINT left_hand
									{
										OFFSET	-110.7	-3.89999	13.6
										CHANNELS 3  Xrotation Yrotation Zrotation
										JOINT left_ee
										{
											OFFSET	-80.8	-5.10001	12.1
											CHANNELS 3  Xrotation Yrotation Zrotation
											End Site
											{
												OFFSET	1	0	0
											}
										}
									}
								}
							}
						}
					}
					JOINT right_clavicle
					{
						OFFSET	43.2	22.4	-70.8
						CHANNELS 3  Xrotation Yrotation Zrotation
						JOINT right_shoulder
						{
							OFFSET	93.9	-5.79999	48.7
							CHANNELS 3  Xrotation Yrotation Zrotation
							JOINT right_elbow
							{
								OFFSET	291.4	-30.8	15.2
								CHANNELS 3  Xrotation Yrotation Zrotation
								JOINT right_lowarm_twist
								{
									OFFSET	110.7	-3.89999	13.6
									CHANNELS 3  Xrotation Yrotation Zrotation
									JOINT right_hand
									{
										OFFSET	110.7	-3.89999	13.6
										CHANNELS 3  Xrotation Yrotation Zrotation
										JOINT right_ee
										{
											OFFSET	80.8	-5.10001	12.1
											CHANNELS 3  Xrotation Yrotation Zrotation
											End Site
											{
												OFFSET	1	0	0
											}
										}
									}
								}
							}
						}
					}
				}
			}
		}
	}
	JOINT left_hip
	{
		OFFSET	-82.8	-127.5	0.300001
		CHANNELS 3  Xrotation Yrotation Zrotation
		JOINT left_knee
		{
			OFFSET	-28.2	-396.7	2.2
			CHANNELS 3  Xrotation Yrotation Zrotation
			JOINT left_ankle
			{
				OFFSET	-11.7	-411.3	35.4
				CHANNELS 3  Xrotation Yrotation Zrotation
				JOINT left_toes
				{
					OFFSET	0	-60	-88.6
					CHANNELS 3  Xrotation Yrotation Zrotation
					JOINT left_foot_ee
					{
						OFFSET	-22.5	-16.5	-42.2
						CHANNELS 3  Xrotation Yrotation Zrotation
						End Site
						{
							OFFSET	1	0	0
						}
					}
				}
			}
		}
	}
	JOINT right_hip
	{
		OFFSET	82.8	-127.5	0.300001
		CHANNELS 3  Xrotation Yrotation Zrotation
		JOINT right_knee
		{
			OFFSET	28.2	-396.7	2.2
			CHANNELS 3  Xrotation Yrotation Zrotation
			JOINT right_ankle
			{
				OFFSET	11.7	-411.3	35.4
				CHANNELS 3  Xrotation Yrotation Zrotation
				JOINT right_toes
				{
					OFFSET	0	-60	-88.6
					CHANNELS 3  Xrotation Yrotation Zrotation
					JOINT right_foot_ee
					{
						OFFSET	22.5	-16.5	-42.2
						CHANNELS 3  Xrotation Yrotation Zrotation
						End Site
						{
							OFFSET	1	0	0
						}
					}
				}
			}
		}
	}
}
MOTION
Frames: 10
Frame Time: 0.02
3177.02 653.055 -1669.29 -7.36260663385 22.4066180436 7.00894403712 0.750316 0.0293848 -0.426615 0.750415 0.0564716 -0.423881 0.750013 0.139021 -0.404398 0.749792 0.07341 -0.421278 4.80895 5.02537 -1.98773 4.96808 10.363 -2.01864 -0.0 0.0 -0.0 3.89929 23.8489 8.07535 -19.3236 -17.1848 70.259 0.242472 -6.84934 0.0145102 58.946 -1.68099 -7.00985 -1.13389 28.8594 5.12976 -0.0 0.0 -0.0 10.2742 11.705 -20.4074 -8.62978 34.9585 -39.6285 1.826 42.1268 -0.703305 11.2736 -0.25877 1.41455 0.820107 11.9396 -0.453396 0.0 0.0 0.0 40.5913 20.0418 -9.43926 -1.1212 0.0445395 0.166296 -1.49721 1.10721 0.221689 -33.7085 0.0 0.0 -0.0 0.0 -0.0 -7.02078 31.1908 -0.616391 -15.4278 -0.322067 -2.33852 40.2706 -4.16322 4.88158 -15.7378 0.0 0.0 0.0 0.0 0.0 
3155.25715776 655.447 -1686.51372604 -6.17326177761 22.2616562906 6.82449785776 0.383415 -0.116928 -0.477665 0.383537 -0.0862963 -0.484137 0.384329 0.0140877 -0.491566 0.383997 -0.0637219 -0.487622 0.444453 5.56202 -0.758239 0.535858 10.5057 -0.266709 -0.0 0.0 -0.0 4.40726 23.1294 8.79074 -18.2373 -17.3801 70.0459 0.257184 -7.26063 0.0163174 60.6161 -1.82908 -7.16447 -0.86289 28.8452 6.58697 -0.0 0.0 -0.0 10.2238 11.5647 -20.2991 -9.9423 35.3585 -39.1398 1.75779 41.0443 -0.658029 9.68916 -0.239296 1.2131 0.849242 11.6708 -0.765692 0.0 0.0 0.0 38.6274 20.3908 -9.78774 -3.05585 0.113703 0.455137 -0.79614 -1.03075 0.118341 -32.7148 0.0 0.0 -0.0 0.0 -0.0 -8.35982 31.5764 -0.86577 -17.9049 -0.314692 -2.71848 37.2037 -1.71003 4.61644 -15.4934 0.0 0.0 0.0 0.0 0.0 
3138.58980001 660.665 -1708.51531265 -5.09450062755 21.5655994865 6.18523810323 0.301753 -0.12276 -0.573231 0.301932 -0.0860356 -0.57988 0.302893 0.0346697 -0.585202 0.30242 -0.0581855 -0.583333 1.16877 6.29458 0.427318 1.26217 10.7715 1.03726 -0.0 0.0 -0.0 5.11504 22.4321 9.81436 -16.7457 -17.491 69.1803 0.276087 -7.78794 0.0187925 60.8586 -1.85097 -7.18657 -1.1944 28.8678 4.80733 -0.0 0.0 -0.0 10.2176 11.1167 -20.294 -11.8312 35.4841 -39.9522 1.5786 38.0224 -0.543931 9.12604 -0.231034 1.14164 0.794294 10.3744 -0.952511 0.0 0.0 0.0 35.9297 19.8464 -9.63895 -4.67756 0.16413 0.698904 2.19176 -0.297563 -0.322641 -31.8521 0.0 0.0 -0.0 0.0 -0.0 -8.62359 31.5382 -0.969092 -20.5813 -0.288276 -3.12825 31.757 -3.88792 4.07557 -15.4864 0.0 0.0 0.0 0.0 0.0 
3138.28334637 660.665 -1708.21270661 -5.11047708151 22.0131816601 6.22827826438 0.301753 -0.12276 -0.573231 0.301932 -0.0860356 -0.57988 0.302893 0.0346697 -0.585202 0.30242 -0.0581855 -0.583333 1.16877 6.29458 0.427318 1.26217 10.7715 1.03726 -0.0 0.0 -0.0 5.11504 22.4321 9.81436 -16.7457 -17.491 69.1803 0.276087 -7.78794 0.0187925 60.8586 -1.85097 -7.18657 -1.1944 28.8678 4.80733 -0.0 0.0 -0.0 10.2176 11.1167 -20.294 -11.8312 35.4841 -39.9522 1.5786 38.0224 -0.543931 9.12604 -0.231034 1.14164 0.794294 10.3744 -0.952511 0.0 0.0 0.0 35.9297 19.8464 -9.63895 -4.67756 0.16413 0.698904 2.19176 -0.297563 -0.322641 -31.8521 0.0 0.0 -0.0 0.0 -0.0 -8.62359 31.5382 -0.969092 -20.5813 -0.288276 -3.12825 31.757 -3.88792 4.07557 -15.4864 0.0 0.0 0.0 0.0 0.0 
3102.70679927 672.491 -1751.10534502 -1.67695197139 22.5705579387 4.97851872701 -0.686892 -0.191515 -0.877566 -0.686473 -0.135287 -0.887973 -0.684043 0.0650652 -0.895859 -0.685155 -0.0772298 -0.894892 -2.62316 6.47968 2.07543 -2.57438 10.1243 3.07046 -0.0 0.0 -0.0 6.5523 22.4977 11.884 -12.8474 -19.7262 66.274 0.332132 -9.34328 0.0271408 61.0201 -1.86559 -7.20123 -1.46406 27.4684 2.73361 -0.0 0.0 -0.0 9.67707 10.5682 -19.1187 -13.9981 34.6079 -41.2637 1.38493 34.4504 -0.429394 8.35431 -0.218571 1.04385 0.821475 7.66101 -2.29503 0.0 0.0 0.0 29.5762 17.7619 -8.29456 -6.90134 0.222014 1.03524 6.19714 1.02122 -0.898692 -32.5256 0.0 0.0 -0.0 0.0 -0.0 -5.86476 31.0439 -3.50495 -31.3319 0.00925074 -4.74889 26.336 -7.82341 3.48489 -15.5662 0.0 0.0 0.0 0.0 0.0 
3075.01909209 676.325 -1781.26718433 2.88610889656 22.8929334109 2.47506964349 -1.51794 -0.185774 -0.952179 -1.51744 -0.124811 -0.962069 -1.51485 0.105716 -0.964354 -1.51614 -0.0479053 -0.968947 -2.13252 5.21423 2.06159 -2.09838 7.79538 2.8578 -0.0 0.0 -0.0 7.12151 21.8286 12.7776 -12.2586 -20.1822 65.5812 0.436845 -12.2107 0.0467269 60.9771 -1.86168 -7.19732 -2.3017 28.0973 -1.52455 -0.0 0.0 -0.0 9.06963 10.9999 -17.7868 -14.9578 35.2072 -42.6799 1.19306 30.5822 -0.326194 9.62502 -0.238391 1.20495 0.440734 7.23504 0.0948891 0.0 0.0 0.0 23.1754 13.716 -7.04896 -13.8653 0.318268 2.09882 18.6533 4.91372 -2.56449 -30.7543 0.0 0.0 -0.0 0.0 -0.0 -4.70469 29.4519 -4.86491 -42.2785 0.618049 -6.31426 24.5839 -11.3601 3.2932 -16.0749 0.0 0.0 0.0 0.0 0.0 
3074.00026902 676.325 -1780.3305784 2.8974032883 23.4157574689 2.4463463371 -1.51794 -0.185774 -0.952179 -1.51744 -0.124811 -0.962069 -1.51485 0.105716 -0.964354 -1.51614 -0.0479053 -0.968947 -2.13252 5.21423 2.06159 -2.09838 7.79538 2.8578 -0.0 0.0 -0.0 7.12151 21.8286 12.7776 -12.2586 -20.1822 65.5812 0.436845 -12.2107 0.0467269 60.9771 -1.86168 -7.19732 -2.3017 28.0973 -1.52455 -0.0 0.0 -0.0 9.06963 10.9999 -17.7868 -14.9578 35.2072 -42.6799 1.19306 30.5822 -0.326194 9.62502 -0.238391 1.20495 0.440734 7.23504 0.0948891 0.0 0.0 0.0 23.1754 13.716 -7.04896 -13.8653 0.318268 2.09882 18.6533 4.91372 -2.56449 -30.7543 0.0 0.0 -0.0 0.0 -0.0 -4.70469 29.4519 -4.86491 -42.2785 0.618049 -6.31426 24.5839 -11.3601 3.2932 -16.0749 0.0 0.0 0.0 0.0 0.0 
3073.69454422 676.325 -1780.04615203 2.9008760898 23.573508308 2.43763522824 -1.51794 -0.185774 -0.952179 -1.51744 -0.124811 -0.962069 -1.51485 0.105716 -0.964354 -1.51614 -0.0479053 -0.968947 -2.13252 5.21423 2.06159 -2.09838 7.79538 2.8578 -0.0 0.0 -0.0 7.12151 21.8286 12.7776 -12.2586 -20.1822 65.5812 0.436845 -12.2107 0.0467269 60.9771 -1.86168 -7.19732 -2.3017 28.0973 -1.52455 -0.0 0.0 -0.0 9.06963 10.9999 -17.7868 -14.9578 35.2072 -42.6799 1.19306 30.5822 -0.326194 9.62502 -0.238391 1.20495 0.440734 7.23504 0.0948891 0.0 0.0 0.0 23.1754 13.716 -7.04896 -13.8653 0.318268 2.09882 18.6533 4.91372 -2.56449 -30.7543 0.0 0.0 -0.0 0.0 -0.0 -4.70469 29.4519 -4.86491 -42.2785 0.618049 -6.31426 24.5839 -11.3601 3.2932 -16.0749 0.0 0.0 0.0 0.0 0.0 
3073.32032919 676.325 -1779.69585717 2.90518065183 23.7671528303 2.42691333709 -1.51794 -0.185774 -0.952179 -1.51744 -0.124811 -0.962069 -1.51485 0.105716 -0.964354 -1.51614 -0.0479053 -0.968947 -2.13252 5.21423 2.06159 -2.09838 7.79538 2.8578 -0.0 0.0 -0.0 7.12151 21.8286 12.7776 -12.2586 -20.1822 65.5812 0.436845 -12.2107 0.0467269 60.9771 -1.86168 -7.19732 -2.3017 28.0973 -1.52455 -0.0 0.0 -0.0 9.06963 10.9999 -17.7868 -14.9578 35.2072 -42.6799 1.19306 30.5822 -0.326194 9.62502 -0.238391 1.20495 0.440734 7.23504 0.0948891 0.0 0.0 0.0 23.1754 13.716 -7.04896 -13.8653 0.318268 2.09882 18.6533 4.91372 -2.56449 -30.7543 0.0 0.0 -0.0 0.0 -0.0 -4.70469 29.4519 -4.86491 -42.2785 0.618049 -6.31426 24.5839 -11.3601 3.2932 -16.0749 0.0 0.0 0.0 0.0 0.0 
3072.65548459 676.325 -1779.06760677 2.9129769957 24.1127154295 2.40770013485 -1.51794 -0.185774 -0.952179 -1.51744 -0.124811 -0.962069 -1.51485 0.105716 -0.964354 -1.51614 -0.0479053 -0.968947 -2.13252 5.21423 2.06159 -2.09838 7.79538 2.8578 -0.0 0.0 -0.0 7.12151 21.8286 12.7776 -12.2586 -20.1822 65.5812 0.436845 -12.2107 0.0467269 60.9771 -1.86168 -7.19732 -2.3017 28.0973 -1.52455 -0.0 0.0 -0.0 9.06963 10.9999 -17.7868 -14.9578 35.2072 -42.6799 1.19306 30.5822 -0.326194 9.62502 -0.238391 1.20495 0.440734 7.23504 0.0948891 0.0 0.0 0.0 23.1754 13.716 -7.04896 -13.8653 0.318268 2.09882 18.6533 4.91372 -2.56449 -30.7543 0.0 0.0 -0.0 0.0 -0.0 -4.70469 29.4519 -4.86491 -42.2785 0.618049 -6.31426 24.5839 -11.3601 3.2932 -16.0749 0.0 0.0 0.0 0.0 0.0 
